<?xml version="1.0" standalone="no"?>
<!DOCTYPE svg PUBLIC "-//W3C//DTD SVG 20010904//EN"
 "http://www.w3.org/TR/2001/REC-SVG-20010904/DTD/svg10.dtd">
<svg version="1.0" xmlns="http://www.w3.org/2000/svg"
 width="600.000000pt" height="600.000000pt" viewBox="0 0 600.000000 600.000000"
 preserveAspectRatio="xMidYMid meet">
<metadata>
Created by potrace 1.14, written by Peter Selinger 2001-2017
</metadata>
<g transform="translate(0.000000,600.000000) scale(0.100000,-0.100000)"
fill="#000000" stroke="none">
<path d="M3166 5609 c-122 -13 -229 -37 -371 -84 -175 -58 -294 -110 -611
-268 -148 -74 -334 -163 -412 -198 -110 -48 -146 -68 -153 -86 -7 -19 -14 -22
-33 -17 -19 4 -42 -4 -88 -32 -240 -144 -365 -314 -384 -518 l-7 -75 29 -12
c26 -10 31 -8 49 17 59 83 249 254 231 209 -40 -105 -55 -269 -32 -374 18 -85
61 -182 110 -250 26 -36 32 -52 26 -71 -4 -14 -15 -87 -25 -163 -23 -177 -18
-190 82 -237 37 -18 78 -36 89 -40 20 -8 22 -18 27 -132 17 -408 328 -1000
590 -1126 84 -40 164 -59 290 -68 81 -6 100 -10 108 -26 8 -14 6 -18 -9 -18
-72 0 -315 -92 -461 -174 -69 -39 -86 -44 -186 -55 -346 -39 -748 -169 -973
-314 -62 -40 -70 -49 -80 -89 -41 -161 -110 -775 -112 -983 0 -19 -22 -68 -55
-125 -54 -93 -155 -285 -155 -295 0 -3 376 -5 836 -5 l836 0 -6 36 c-4 19 -13
83 -21 141 -13 100 -13 108 7 162 36 97 144 313 192 384 51 74 167 220 171
215 2 -2 -3 -32 -11 -68 -7 -35 -11 -66 -10 -68 2 -2 19 33 37 78 27 66 37 80
53 78 15 -2 23 -17 33 -58 30 -119 65 -209 97 -246 40 -46 56 -39 56 24 l-1
47 -13 -30 -13 -30 -22 43 c-21 41 -81 214 -81 233 0 5 22 9 48 9 l49 0 16
-58 c18 -65 46 -214 48 -252 1 -14 -10 -90 -24 -170 -22 -121 -37 -234 -60
-443 l-4 -27 1470 0 1470 0 -7 234 c-9 328 -31 544 -76 761 -30 144 -48 184
-105 228 -117 89 -660 340 -946 438 l-154 52 -125 122 c-69 66 -145 137 -170
156 -25 18 -59 49 -76 66 -17 18 -39 33 -47 33 -13 0 -68 21 -95 36 -2 1 -10
42 -18 90 -33 200 -28 441 12 556 15 45 18 47 67 58 29 6 90 29 137 52 68 34
102 59 170 128 117 117 170 228 170 355 0 55 4 67 31 101 135 170 212 415 212
679 0 237 -50 400 -191 615 -102 156 -353 382 -557 503 -38 23 -107 73 -152
112 -107 91 -137 109 -152 91 -9 -11 1 -23 54 -60 36 -26 106 -86 155 -133 78
-74 90 -82 90 -62 1 23 2 22 18 -6 27 -49 41 -94 29 -98 -6 -2 -7 -14 -3 -30
7 -31 56 -61 64 -39 2 7 8 10 13 6 5 -3 14 -2 20 2 8 5 8 9 -1 14 -7 4 9 5 36
3 59 -7 86 -26 216 -161 247 -254 354 -542 319 -856 -18 -160 -26 -182 -78
-213 -28 -16 -40 -28 -33 -33 20 -12 7 -45 -19 -48 -40 -6 -49 15 -18 44 23
21 37 54 23 54 -2 0 -20 -22 -40 -49 -20 -27 -43 -51 -50 -54 -8 -3 -52 -9
-98 -13 -46 -3 -86 -11 -89 -17 -4 -5 -12 -6 -19 -2 -7 4 -16 2 -21 -6 -7 -12
-9 -12 -9 0 0 10 -3 11 -14 2 -10 -8 -19 -5 -39 13 l-25 24 -20 -47 c-13 -29
-21 -39 -22 -26 -1 21 -27 62 -34 54 -2 -2 -7 -51 -11 -109 -7 -113 -14 -135
-66 -221 l-34 -56 -1 196 c-1 189 -21 394 -54 549 -15 70 -24 66 -15 -7 7 -59
6 -60 -17 -54 -12 3 -28 10 -34 14 -12 10 -201 5 -226 -5 -50 -22 -171 269
-198 477 -10 76 -9 89 9 145 12 34 21 72 20 84 -1 22 -1 22 -8 -2 -45 -144
-241 -393 -383 -483 -135 -87 -297 -156 -273 -117 4 6 16 8 28 5 16 -5 18 -4
8 3 -7 5 -10 15 -6 22 6 9 3 9 -15 0 -12 -6 23 33 77 87 137 137 273 316 273
360 0 4 -28 -20 -62 -53 -118 -114 -244 -199 -379 -254 -64 -27 -135 -37 -123
-19 2 4 -7 17 -22 28 -14 11 -23 25 -19 31 8 12 0 13 -23 1 -58 -29 -134 -45
-217 -45 -89 0 -190 10 -207 20 -4 3 -8 1 -8 -5 0 -7 -8 -7 -26 -1 -32 13 -37
13 -28 -1 4 -7 -1 -7 -16 1 -23 13 -96 5 -118 -13 -18 -14 -66 2 -215 73 -135
65 -165 87 -100 73 21 -4 94 -8 163 -7 95 0 133 4 160 17 34 16 33 16 -80 11
-129 -7 -271 12 -348 46 -25 11 -47 18 -50 15 -19 -19 132 -145 240 -201 53
-27 60 -35 48 -54 -5 -9 -25 -13 -59 -11 -35 1 -51 -3 -51 -11 0 -9 -3 -10 -8
-2 -11 16 -50 24 -56 10 -2 -6 -5 -2 -5 9 -1 17 -3 17 -11 5 -7 -12 -10 -12
-10 -1 0 9 -8 11 -25 7 -18 -5 -32 -1 -46 13 -12 11 -27 17 -35 14 -8 -3 -14
0 -14 6 0 6 -7 11 -15 11 -18 0 -20 -26 -3 -36 7 -5 8 -3 3 6 -5 9 -4 11 3 6
20 -12 13 -29 -9 -23 -18 5 -20 2 -14 -26 5 -27 4 -29 -6 -13 -19 31 8 218 46
314 16 38 23 43 113 81 124 53 141 65 82 57 -77 -11 -165 -45 -252 -98 -46
-28 -92 -50 -103 -50 -23 1 -55 -25 -56 -47 0 -10 -2 -12 -6 -3 -2 6 -9 12
-15 12 -6 0 -8 -7 -4 -15 3 -9 0 -15 -10 -15 -8 0 -13 -4 -10 -9 7 -10 -31
-61 -46 -61 -19 0 3 84 44 169 49 102 132 189 259 274 86 57 310 169 440 221
75 29 334 100 425 117 32 6 104 21 159 34 330 80 663 74 847 -14 78 -37 149
-98 184 -157 33 -57 43 -50 15 10 -98 202 -443 288 -888 221 -130 -19 -224
-25 -217 -14 3 5 23 9 45 9 49 0 48 17 0 41 l-33 15 98 43 c310 137 520 191
741 191 127 0 219 -17 323 -60 66 -27 68 -27 73 -8 6 22 -30 41 -150 78 -59
18 -220 42 -263 38 -8 0 -51 -4 -94 -9z m-803 -356 c-7 -2 -19 -2 -25 0 -7 3
-2 5 12 5 14 0 19 -2 13 -5z m1101 -843 c32 -148 99 -319 158 -402 11 -16 17
-28 15 -28 -3 0 -45 18 -94 41 -48 22 -128 51 -178 65 -100 27 -281 48 -329
39 -36 -7 -40 -10 87 82 92 67 207 184 268 274 l43 64 7 -30 c4 -16 14 -64 23
-105z m-494 -76 c-166 -168 -394 -323 -605 -409 -88 -36 -122 -55 -97 -55 6 0
71 12 144 26 158 31 264 63 378 116 137 64 314 73 542 27 193 -38 330 -101
433 -198 39 -36 105 -91 148 -121 l77 -54 0 -131 c0 -119 -15 -223 -46 -334
-5 -17 -4 -22 4 -17 22 14 143 195 183 276 48 95 91 130 168 138 93 9 165 -38
196 -126 19 -58 19 -112 0 -187 -34 -129 -117 -242 -240 -324 -90 -60 -161
-88 -268 -104 l-81 -13 -55 -89 c-70 -114 -172 -216 -278 -278 -170 -99 -529
-248 -754 -312 -197 -56 -361 -48 -514 24 -82 39 -135 88 -222 204 -99 133
-145 213 -213 370 -90 206 -140 409 -140 567 l0 58 73 -19 c116 -29 244 -49
322 -49 61 0 75 3 93 23 33 35 48 77 78 225 4 20 10 22 67 22 84 0 170 -38
163 -72 -44 -208 -24 -275 90 -318 225 -84 796 -170 937 -140 55 11 74 24 97
70 21 40 78 255 86 320 4 33 12 60 18 60 18 1 -123 89 -204 129 -71 34 -81 36
-190 39 -63 2 -155 -1 -205 -6 -92 -9 -255 3 -255 19 0 17 110 42 207 46 69 4
133 0 198 -11 54 -9 100 -15 102 -12 9 9 -102 36 -181 45 -120 14 -274 -12
-342 -56 -18 -11 -40 -11 -151 3 -71 10 -137 15 -146 11 -9 -3 -21 -25 -28
-49 -7 -24 -15 -46 -19 -51 -3 -4 -26 3 -50 14 -25 12 -73 24 -107 27 l-63 5
0 52 c0 53 0 53 -45 74 -25 12 -51 21 -58 21 -8 0 -52 42 -98 94 -57 64 -95
97 -120 106 -33 11 -40 10 -105 -23 -39 -19 -76 -42 -83 -51 -12 -14 -10 -16
12 -16 14 0 29 -4 32 -10 7 -11 -9 -13 -44 -3 l-23 6 4 156 c3 122 8 163 21
189 10 17 19 32 21 32 1 0 43 -14 92 -31 66 -23 114 -32 187 -36 57 -4 104
-11 115 -19 16 -13 16 -13 0 -14 -30 0 -20 -18 15 -25 17 -4 38 -12 45 -18 9
-7 16 -7 20 -1 4 6 50 16 102 23 179 23 290 61 495 170 61 32 114 59 120 60 5
1 -20 -29 -55 -65z m-639 -110 c-18 -8 -41 -12 -50 -8 -13 5 -11 8 9 14 14 5
36 8 50 8 23 0 22 -1 -9 -14z m499 -73 c0 -5 -7 -12 -16 -15 -14 -5 -15 -4 -4
9 14 17 20 19 20 6z m-30 -56 c0 -2 -10 -9 -22 -15 -22 -11 -22 -10 -4 4 21
17 26 19 26 11z m-807 -207 c24 -13 36 -23 27 -25 -24 -5 -113 21 -118 35 -6
20 44 14 91 -10z m-307 -39 c40 -10 54 -26 38 -42 -6 -6 -58 18 -94 42 -20 14
-1 14 56 0z m-83 -33 c18 -13 51 -33 75 -45 47 -24 46 -20 33 -123 -6 -40 -13
-103 -16 -140 l-6 -67 -67 30 c-106 47 -104 42 -87 189 16 135 24 180 31 180
3 0 20 -11 37 -24z m269 4 c5 0 14 -15 22 -32 l14 -33 1 28 c1 32 7 32 106 9
l70 -17 7 -87 c7 -99 13 -122 40 -160 26 -37 43 -35 90 11 21 22 37 32 34 23
-3 -9 -12 -46 -21 -82 -19 -75 -42 -118 -67 -126 -20 -6 -242 28 -358 55 l-75
17 3 54 c3 57 28 271 38 326 6 30 6 31 47 23 23 -4 45 -8 49 -9z m268 -80 c0
-11 -4 -20 -10 -20 -5 0 -10 9 -10 20 0 11 5 20 10 20 6 0 10 -9 10 -20z m140
-30 c0 -5 -2 -10 -4 -10 -3 0 -8 5 -11 10 -3 6 -1 10 4 10 6 0 11 -4 11 -10z
m-11 -53 c0 -21 -1 -21 -9 -2 -12 28 -12 37 0 30 6 -3 10 -16 9 -28z m499 -28
c87 -12 92 -19 30 -39 -46 -14 -50 -30 -8 -30 32 0 37 -9 18 -28 -6 -6 -9 -15
-5 -18 3 -4 25 8 48 27 38 30 49 33 123 37 44 2 106 0 136 -5 l55 -8 7 -74
c11 -125 47 -191 106 -191 57 0 127 87 138 174 5 36 10 45 23 42 9 -2 31 -7
49 -11 17 -4 32 -10 32 -14 0 -5 -19 -30 -42 -56 l-42 -48 35 18 c18 10 53 31
76 46 46 32 64 35 112 18 32 -11 33 -12 26 -63 -10 -68 -50 -208 -75 -257 -13
-25 -29 -41 -47 -45 -47 -12 -305 5 -463 30 -187 31 -433 87 -495 115 -61 27
-70 52 -55 159 7 46 19 89 27 98 9 9 13 25 10 40 -2 14 0 44 6 66 11 45 -11
43 175 17z m-568 -74 c0 -8 -7 -15 -15 -15 -16 0 -20 12 -8 23 11 12 23 8 23
-8z m1036 -26 c3 -6 1 -16 -5 -22 -9 -9 -14 -8 -21 3 -9 15 -4 30 10 30 5 0
12 -5 16 -11z m90 -167 c-8 -13 -55 -21 -62 -11 -3 5 1 9 9 9 8 0 20 7 27 15
14 17 37 5 26 -13z m639 -559 c-43 -114 -57 -365 -30 -563 9 -69 19 -143 22
-166 l5 -40 -115 -101 c-97 -87 -129 -108 -213 -146 -230 -103 -469 -183 -634
-213 -62 -11 -94 -22 -100 -33 -4 -9 -17 -52 -28 -95 -31 -118 -34 -117 -56
14 -16 94 -33 125 -61 114 -30 -12 -55 89 -32 131 14 27 14 27 20 -30 3 -31 8
-60 11 -63 41 -40 14 365 -29 449 -15 28 -15 29 12 34 100 21 454 153 642 239
284 130 399 220 500 394 39 66 60 92 74 92 14 0 17 -5 12 -17z m-1289 -1055
c-1 -104 2 -129 19 -163 15 -29 27 -41 46 -43 21 -2 28 -10 33 -34 11 -53 8
-62 -12 -38 -17 21 -19 21 -34 6 -56 -56 -202 -355 -262 -536 l-43 -130 -19
107 c-14 81 -19 155 -19 298 l0 190 37 87 c38 92 88 170 192 300 33 42 61 77
62 78 0 0 0 -55 0 -122z m888 -90 c-159 -166 -294 -352 -397 -547 -40 -75 -56
-98 -60 -85 -3 11 -29 105 -57 209 -55 202 -72 245 -95 245 -8 0 -22 -14 -30
-31 -23 -44 -27 -32 -9 29 14 46 19 52 42 52 79 1 380 90 572 170 52 21 99 39
104 40 5 0 -27 -37 -70 -82z m-625 -354 c27 -8 53 -19 56 -24 3 -5 12 -40 20
-77 14 -66 14 -69 -10 -109 -42 -72 -77 -94 -149 -94 -81 0 -165 16 -186 35
-9 8 -27 48 -39 88 l-23 73 27 55 c43 86 37 82 151 75 56 -4 125 -13 153 -22z
m-560 -419 c24 -91 40 -135 50 -135 4 0 22 48 41 106 23 73 46 123 73 160 40
54 57 66 57 41 0 -8 11 -24 25 -37 l25 -23 -50 -52 c-83 -89 -207 -296 -291
-488 l-34 -77 -7 37 c-4 21 -10 130 -13 243 -8 225 -6 237 57 471 l33 124 7
-145 c4 -95 14 -172 27 -225z m-552 294 c78 -38 124 -113 122 -199 -2 -67 -11
-84 -54 -92 -22 -5 -80 -22 -130 -37 -135 -44 -151 -45 -250 -21 -94 22 -105
29 -105 71 0 108 107 254 217 295 49 19 143 10 200 -17z m1243 -274 c-16 -54
-72 -196 -76 -192 -2 1 -14 56 -28 122 -20 93 -23 121 -13 126 7 4 27 22 46
39 l33 32 25 -43 c22 -40 24 -48 13 -84z"/>
<path d="M2115 3956 c33 -20 79 -58 103 -84 33 -36 42 -41 37 -23 -14 48 -105
122 -170 136 -22 6 -15 -2 30 -29z"/>
<path d="M4315 3496 c-78 -35 -160 -160 -220 -339 -45 -134 -29 -144 22 -12
39 104 83 186 95 179 17 -11 38 -71 38 -108 0 -25 -13 -54 -45 -101 -44 -64
-44 -65 -16 -51 97 51 128 189 56 256 -14 13 -25 29 -25 35 0 18 69 94 101
110 40 21 65 19 87 -10 12 -15 23 -21 27 -15 11 18 -4 46 -31 58 -32 15 -51
15 -89 -2z"/>
<path d="M4430 3378 c0 -55 -23 -135 -61 -210 -33 -66 -22 -78 16 -19 58 87
93 234 61 260 -14 12 -16 9 -16 -31z"/>
<path d="M2150 3224 c0 -40 26 -150 41 -174 7 -10 8 -3 5 25 -3 22 -8 66 -12
98 l-6 57 40 0 c22 0 47 3 56 6 32 12 3 24 -60 24 l-64 0 0 -36z"/>
<path d="M2155 2691 c3 -6 39 -28 80 -51 91 -50 192 -73 295 -67 73 4 200 35
200 48 0 9 -38 19 -72 19 -29 0 -46 -15 -26 -23 7 -2 -23 -7 -67 -11 -121 -11
-244 13 -357 70 -52 26 -62 29 -53 15z"/>
<path d="M3653 4983 c-33 -23 -28 -36 7 -18 42 22 74 19 110 -11 60 -51 99
-157 145 -400 l25 -129 -5 96 c-10 218 -83 421 -166 465 -36 18 -88 17 -116
-3z"/>
</g>
</svg>
